HIERARCHY
ROOT Hips
{
	OFFSET 0.000000 71.427986 0.000000
	CHANNELS 6 Xposition Yposition Zposition Xrotation Yrotation Zrotation
	JOINT Pelvis
	{
		OFFSET 0.000000 0.000000 0.000000
		CHANNELS 3 Xrotation Yrotation Zrotation
		JOINT LeftUpLeg
		{
			OFFSET 6.797100 -2.508499 -1.318700
			CHANNELS 3 Xrotation Yrotation Zrotation
			JOINT LeftLeg
			{
				OFFSET 0.069008 -29.241863 0.690200
				CHANNELS 3 Xrotation Yrotation Zrotation
				JOINT LeftFoot
				{
					OFFSET -0.069008 -29.568123 -0.266800
					CHANNELS 3 Xrotation Yrotation Zrotation
					JOINT LeftToeBase
					{
						OFFSET 3.145500 -8.631000 16.059900
						CHANNELS 3 Xrotation Yrotation Zrotation
						End Site
						{
							OFFSET 0.000000 18.501587 0.000000
						}
					}
				}
			}
			JOINT Left_ShortSleeve
			{
				OFFSET 0.265923 -10.480953 1.153800
				CHANNELS 3 Xrotation Yrotation Zrotation
				End Site
				{
					OFFSET 1.725763 19.823879 0.000000
				}
			}
		}
		JOINT RightUpLeg
		{
			OFFSET -6.797100 -2.508499 -1.318700
			CHANNELS 3 Xrotation Yrotation Zrotation
			JOINT RightLeg
			{
				OFFSET -0.082453 -29.241932 0.688000
				CHANNELS 3 Xrotation Yrotation Zrotation
				JOINT RightFoot
				{
					OFFSET 0.082453 -29.568058 -0.264600
					CHANNELS 3 Xrotation Yrotation Zrotation
					JOINT RightToeBase
					{
						OFFSET -3.115300 -8.682800 16.113400
						CHANNELS 3 Xrotation Yrotation Zrotation
						End Site
						{
							OFFSET 0.000000 18.567114 0.000000
						}
					}
				}
			}
			JOINT Right_ShortSleeve
			{
				OFFSET -0.265923 -10.480953 1.153800
				CHANNELS 3 Xrotation Yrotation Zrotation
				End Site
				{
					OFFSET -1.725766 19.823910 0.000000
				}
			}
		}
	}
	JOINT Spine
	{
		OFFSET 0.000000 13.368103 0.470500
		CHANNELS 3 Xrotation Yrotation Zrotation
		JOINT Spine1
		{
			OFFSET 0.147000 13.837402 0.538800
			CHANNELS 3 Xrotation Yrotation Zrotation
			JOINT Spine2
			{
				OFFSET 0.168000 16.242897 -1.435500
				CHANNELS 3 Xrotation Yrotation Zrotation
				JOINT Neck
				{
					OFFSET 0.217200 18.631500 -1.679100
					CHANNELS 3 Xrotation Yrotation Zrotation
					JOINT Head
					{
						OFFSET 0.000000 6.599396 1.385900
						CHANNELS 3 Xrotation Yrotation Zrotation
						JOINT Hat
						{
							OFFSET -0.532200 27.220596 -10.096100
							CHANNELS 3 Xrotation Yrotation Zrotation
							End Site
							{
								OFFSET 0.000000 22.029861 0.000000
							}
						}
						JOINT HairD
						{
							OFFSET -10.777400 17.437393 -1.325900
							CHANNELS 3 Xrotation Yrotation Zrotation
							JOINT HairD1
							{
								OFFSET -3.290299 -11.051193 1.062200
								CHANNELS 3 Xrotation Yrotation Zrotation
								End Site
								{
									OFFSET 0.000000 11.579437 0.000000
								}
							}
						}
						JOINT HairB
						{
							OFFSET -10.777400 17.437393 1.467900
							CHANNELS 3 Xrotation Yrotation Zrotation
							JOINT HairB1
							{
								OFFSET -1.561200 -12.956299 3.590200
								CHANNELS 3 Xrotation Yrotation Zrotation
								End Site
								{
									OFFSET 0.000000 13.534866 0.000000
								}
							}
						}
						JOINT HairA
						{
							OFFSET 9.713100 17.437393 1.467900
							CHANNELS 3 Xrotation Yrotation Zrotation
							JOINT HairA1
							{
								OFFSET 1.561200 -12.956299 3.590200
								CHANNELS 3 Xrotation Yrotation Zrotation
								End Site
								{
									OFFSET 0.000000 13.534866 0.000000
								}
							}
						}
						JOINT HairC
						{
							OFFSET 9.713100 17.437393 -1.325900
							CHANNELS 3 Xrotation Yrotation Zrotation
							JOINT HairC1
							{
								OFFSET 3.290300 -11.051193 1.062200
								CHANNELS 3 Xrotation Yrotation Zrotation
								End Site
								{
									OFFSET 0.000000 11.579437 0.000000
								}
							}
						}
					}
				}
				JOINT LeftShoulder
				{
					OFFSET 5.101800 15.108002 -2.763700
					CHANNELS 3 Xrotation Yrotation Zrotation
					JOINT LeftArm
					{
						OFFSET 9.825497 2.506317 -1.597400
						CHANNELS 3 Xrotation Yrotation Zrotation
						JOINT LeftForeArm
						{
							OFFSET 21.966244 0.000000 0.000000
							CHANNELS 3 Xrotation Yrotation Zrotation
							JOINT LeftHand
							{
								OFFSET 33.879036 0.000000 0.000000
								CHANNELS 3 Xrotation Yrotation Zrotation
								JOINT LeftHandThumb1
								{
									OFFSET 6.715286 -2.359680 3.363841
									CHANNELS 3 Xrotation Yrotation Zrotation
									JOINT LeftHandThumb2
									{
										OFFSET 2.507072 -1.447464 1.447461
										CHANNELS 3 Xrotation Yrotation Zrotation
										JOINT LeftHandThumb3
										{
											OFFSET 2.898338 -1.673355 1.673357
											CHANNELS 3 Xrotation Yrotation Zrotation
											End Site
											{
												OFFSET -0.295959 3.727692 -0.131651
											}
										}
									}
								}
								JOINT LeftHandIndex1
								{
									OFFSET 14.190811 -0.254547 3.840278
									CHANNELS 3 Xrotation Yrotation Zrotation
									JOINT LeftHandIndex2
									{
										OFFSET 3.551727 0.000000 -0.000000
										CHANNELS 3 Xrotation Yrotation Zrotation
										JOINT LeftHandIndex3
										{
											OFFSET 2.894196 0.000000 0.000000
											CHANNELS 3 Xrotation Yrotation Zrotation
											End Site
											{
												OFFSET -1.000603 2.690872 0.366626
											}
										}
									}
								}
								JOINT LeftHandMiddle1
								{
									OFFSET 13.776489 0.000000 0.000000
									CHANNELS 3 Xrotation Yrotation Zrotation
									JOINT LeftHandMiddle2
									{
										OFFSET 3.438232 0.000000 0.000000
										CHANNELS 3 Xrotation Yrotation Zrotation
										JOINT LeftHandMiddle3
										{
											OFFSET 3.691551 0.000000 0.000000
											CHANNELS 3 Xrotation Yrotation Zrotation
											End Site
											{
												OFFSET -1.082298 3.499527 0.457670
											}
										}
									}
								}
								JOINT LeftHandRing1
								{
									OFFSET 13.966164 -0.268127 -3.067488
									CHANNELS 3 Xrotation Yrotation Zrotation
									JOINT LeftHandRing2
									{
										OFFSET 3.162567 0.000000 0.000000
										CHANNELS 3 Xrotation Yrotation Zrotation
										JOINT LeftHandRing3
										{
											OFFSET 3.324348 0.000000 0.000000
											CHANNELS 3 Xrotation Yrotation Zrotation
											End Site
											{
												OFFSET -0.861900 3.184998 0.405154
											}
										}
									}
								}
								JOINT LeftHandPinky1
								{
									OFFSET 13.131393 -0.168503 -5.746925
									CHANNELS 3 Xrotation Yrotation Zrotation
									JOINT LeftHandPinky2
									{
										OFFSET 2.849182 0.000000 0.000000
										CHANNELS 3 Xrotation Yrotation Zrotation
										JOINT LeftHandPinky3
										{
											OFFSET 2.805038 0.000000 0.000000
											CHANNELS 3 Xrotation Yrotation Zrotation
											End Site
											{
												OFFSET -0.882500 2.642609 0.325652
											}
										}
									}
								}
							}
							JOINT Left_Sleeve
							{
								OFFSET 6.592125 -0.646545 0.805568
								CHANNELS 3 Xrotation Yrotation Zrotation
								End Site
								{
									OFFSET -0.000179 20.275787 -0.000000
								}
							}
						}
					}
				}
				JOINT RightShoulder
				{
					OFFSET -5.731700 15.108002 -2.763700
					CHANNELS 3 Xrotation Yrotation Zrotation
					JOINT RightArm
					{
						OFFSET -9.825497 2.506317 -1.597400
						CHANNELS 3 Xrotation Yrotation Zrotation
						JOINT RightForeArm
						{
							OFFSET -21.966242 0.000000 0.000000
							CHANNELS 3 Xrotation Yrotation Zrotation
							JOINT RightHand
							{
								OFFSET -33.879032 0.000000 0.000000
								CHANNELS 3 Xrotation Yrotation Zrotation
								JOINT RightHandThumb1
								{
									OFFSET -6.715286 -2.359680 3.363841
									CHANNELS 3 Xrotation Yrotation Zrotation
									JOINT RightHandThumb2
									{
										OFFSET -2.507072 -1.447464 1.447461
										CHANNELS 3 Xrotation Yrotation Zrotation
										JOINT RightHandThumb3
										{
											OFFSET -2.898338 -1.673355 1.673357
											CHANNELS 3 Xrotation Yrotation Zrotation
											End Site
											{
												OFFSET 0.295959 3.727692 -0.131651
											}
										}
									}
								}
								JOINT RightHandIndex1
								{
									OFFSET -14.190811 -0.254547 3.840278
									CHANNELS 3 Xrotation Yrotation Zrotation
									JOINT RightHandIndex2
									{
										OFFSET -3.551727 0.000000 -0.000000
										CHANNELS 3 Xrotation Yrotation Zrotation
										JOINT RightHandIndex3
										{
											OFFSET -2.894196 0.000000 0.000000
											CHANNELS 3 Xrotation Yrotation Zrotation
											End Site
											{
												OFFSET 1.000603 2.690872 0.366626
											}
										}
									}
								}
								JOINT RightHandMiddle1
								{
									OFFSET -13.776489 0.000000 0.000000
									CHANNELS 3 Xrotation Yrotation Zrotation
									JOINT RightHandMiddle2
									{
										OFFSET -3.438232 0.000000 0.000000
										CHANNELS 3 Xrotation Yrotation Zrotation
										JOINT RightHandMiddle3
										{
											OFFSET -3.691551 0.000000 0.000000
											CHANNELS 3 Xrotation Yrotation Zrotation
											End Site
											{
												OFFSET 1.082298 3.499527 0.457670
											}
										}
									}
								}
								JOINT RightHandRing1
								{
									OFFSET -13.966164 -0.268127 -3.067488
									CHANNELS 3 Xrotation Yrotation Zrotation
									JOINT RightHandRing2
									{
										OFFSET -3.162567 0.000000 0.000000
										CHANNELS 3 Xrotation Yrotation Zrotation
										JOINT RightHandRing3
										{
											OFFSET -3.324348 0.000000 0.000000
											CHANNELS 3 Xrotation Yrotation Zrotation
											End Site
											{
												OFFSET 0.861900 3.184998 0.405154
											}
										}
									}
								}
								JOINT RightHandPinky1
								{
									OFFSET -13.131393 -0.168503 -5.746925
									CHANNELS 3 Xrotation Yrotation Zrotation
									JOINT RightHandPinky2
									{
										OFFSET -2.849182 0.000000 0.000000
										CHANNELS 3 Xrotation Yrotation Zrotation
										JOINT RightHandPinky3
										{
											OFFSET -2.805038 0.000000 0.000000
											CHANNELS 3 Xrotation Yrotation Zrotation
											End Site
											{
												OFFSET 0.882500 2.642609 0.325652
											}
										}
									}
								}
							}
							JOINT Right_Sleeve
							{
								OFFSET -6.592125 -0.646545 0.805568
								CHANNELS 3 Xrotation Yrotation Zrotation
								End Site
								{
									OFFSET 0.000179 20.275787 -0.000000
								}
							}
						}
					}
				}
				JOINT Bind_Right_JacketString
				{
					OFFSET -3.534800 11.969597 7.200700
					CHANNELS 3 Xrotation Yrotation Zrotation
					JOINT Bind_Right_JacketString1
					{
						OFFSET -0.319900 -6.102600 2.794100
						CHANNELS 3 Xrotation Yrotation Zrotation
						End Site
						{
							OFFSET 0.000000 6.719452 0.000000
						}
					}
				}
				JOINT Bind_Left_JacketString
				{
					OFFSET 2.904800 11.969597 7.200700
					CHANNELS 3 Xrotation Yrotation Zrotation
					JOINT Bind_Left_JacketString1
					{
						OFFSET 0.364800 -5.904503 3.186800
						CHANNELS 3 Xrotation Yrotation Zrotation
						End Site
						{
							OFFSET 0.000000 6.719513 0.000000
						}
					}
				}
				JOINT HairE
				{
					OFFSET 5.915200 17.612701 -11.592200
					CHANNELS 3 Xrotation Yrotation Zrotation
					JOINT HairE1
					{
						OFFSET 0.289200 -7.171898 -1.284500
						CHANNELS 3 Xrotation Yrotation Zrotation
						End Site
						{
							OFFSET 0.000000 7.291756 0.000000
						}
					}
				}
				JOINT HairF
				{
					OFFSET -0.864800 17.612701 -11.592200
					CHANNELS 3 Xrotation Yrotation Zrotation
					JOINT HairF1
					{
						OFFSET 0.000000 -14.087097 -2.127501
						CHANNELS 3 Xrotation Yrotation Zrotation
						End Site
						{
							OFFSET 0.000000 14.246841 0.000000
						}
					}
				}
				JOINT HairG
				{
					OFFSET -8.087700 17.612701 -11.592200
					CHANNELS 3 Xrotation Yrotation Zrotation
					JOINT HairG1
					{
						OFFSET -0.293600 -6.081398 -0.910100
						CHANNELS 3 Xrotation Yrotation Zrotation
						End Site
						{
							OFFSET 0.000000 6.156120 0.000000
						}
					}
				}
			}
		}
	}
	JOINT Pouch
	{
		OFFSET 0.000000 4.394501 10.847300
		CHANNELS 3 Xrotation Yrotation Zrotation
		End Site
		{
			OFFSET 0.000000 21.880577 0.000000
		}
	}
	JOINT Bag
	{
		OFFSET -13.229000 4.813004 -0.593300
		CHANNELS 3 Xrotation Yrotation Zrotation
		End Site
		{
			OFFSET 0.000000 21.880577 0.000000
		}
	}
	JOINT OccupyGuyFacialAnim_Joint
	{
		OFFSET 1.000000 -70.206398 -1.655000
		CHANNELS 3 Xrotation Yrotation Zrotation
		End Site
		{
			OFFSET 0.000000 21.880577 0.000000
		}
	}
}
MOTION
Frames: 4
Frame Time: 0.016667
0.267660 41.182999 3.113551 10.251636 1.288467 2.066698 -0.000000 0.000000 -0.000000 -98.041895 -5.498272 8.695606 86.201331 8.142879 0.254586 2.918610 -7.020900 -7.646722 -0.000000 0.000000 -0.000000 0.000000 -0.000001 -0.000000 -99.117417 9.821710 -7.316446 86.773039 -7.036280 -1.874054 3.994856 -0.026494 8.926133 -0.000000 0.000000 0.000000 -0.000000 -0.000000 -0.000000 6.859479 -1.852495 -1.490245 12.577063 -1.034805 -1.095898 12.570156 -1.077110 -1.099538 -0.427480 -0.653576 -0.369724 -52.699868 2.125732 -7.829015 -0.000001 0.000000 0.000001 -0.000001 0.000000 0.000001 -0.000001 0.000000 0.000001 -0.000001 0.000000 0.000001 -0.000001 -0.000000 0.000001 -0.000001 0.000000 0.000001 -0.000001 -0.000000 0.000001 -0.000001 0.000000 0.000001 -0.000001 0.000000 0.000001 2.038161 -12.501287 5.547279 -60.008505 -29.861696 -11.556451 0.000035 -114.301215 0.000049 -11.910115 -28.831301 34.008017 20.858780 4.366402 2.192843 0.280545 11.989273 -27.457530 0.000001 0.000001 -0.000002 0.425213 1.444476 -13.828665 0.836195 3.018157 -30.964973 0.000001 0.000000 -0.000004 0.528401 5.942697 -8.228429 0.952410 3.203613 -33.106142 0.000001 0.000000 -0.000003 0.930016 7.386328 -10.768653 1.068077 3.374094 -35.122168 -0.000000 0.000000 -0.000003 0.270930 7.579821 -14.433272 0.945467 3.192960 -32.981689 -0.000001 -0.000001 0.000003 0.000000 0.000000 -0.000001 1.433094 10.850708 -3.496004 -73.306870 34.141244 27.922119 0.000009 117.257846 -0.000006 11.925575 3.902110 -19.975996 0.467971 9.476103 18.594362 2.135804 -23.166514 17.501154 -0.000002 -0.000004 0.000002 2.448388 2.152561 1.738848 0.603754 -2.295175 29.472488 -0.000004 -0.000001 0.000000 -0.030330 -3.619543 -3.130917 1.500617 -3.425972 47.297759 0.000000 0.000000 0.000001 0.239633 -6.342803 2.621633 0.613277 -2.311947 29.709472 -0.000000 -0.000001 0.000001 -11.640140 -11.617290 13.904433 0.284064 -1.603173 20.094442 -0.000001 -0.000000 -0.000001 0.000000 -0.000001 -0.000003 -0.000002 0.000000 0.000000 -0.000001 -0.000000 -0.000000 -0.000002 0.000000 0.000000 -0.000002 0.000000 0.000000 -0.000002 0.000000 0.000000 -0.000001 -0.000000 -0.000000 -0.000002 0.000000 0.000000 -0.000002 0.000000 0.000000 -0.000002 0.000000 0.000000 -0.000001 -0.000000 -0.000000 -0.000000 0.000000 -0.000000 -0.000000 0.000000 -0.000000 -0.000000 0.000000 -0.000000 
0.281209 41.133369 3.058886 10.521529 1.394764 2.069675 -0.000000 0.000000 -0.000000 -98.411018 -5.462325 8.572577 86.111801 8.168843 0.254568 3.091629 -7.030747 -7.565365 -0.000000 -0.000000 -0.000000 -0.000000 -0.000000 0.000000 -99.447766 9.940639 -7.322630 86.720357 -7.126065 -1.874035 4.140197 -0.012851 8.972773 0.000000 0.000000 -0.000000 0.000000 0.000000 -0.000000 7.085274 -1.818008 -1.487832 12.767371 -1.020628 -1.140127 12.760488 -1.062330 -1.143888 1.301033 -0.746534 -0.517728 -52.329788 1.916440 -7.951302 -0.000001 0.000000 0.000000 -0.000001 0.000000 0.000000 -0.000001 0.000000 0.000000 -0.000001 0.000000 0.000000 -0.000000 0.000000 0.000000 -0.000001 0.000000 0.000000 -0.000000 0.000000 0.000000 -0.000001 0.000000 0.000000 -0.000001 0.000000 0.000000 2.068313 -12.394298 6.151572 -58.624429 -28.929871 -12.183145 0.000072 -114.948040 0.000065 -11.192798 -27.755686 33.451121 20.859668 4.363842 2.192676 0.280848 11.988511 -27.457586 0.000001 -0.000003 -0.000001 0.424905 1.444535 -13.827431 0.836211 3.018179 -30.965216 0.000000 0.000001 0.000000 0.528580 5.943465 -8.229846 0.952411 3.203609 -33.106122 -0.000000 0.000000 0.000001 0.929986 7.386355 -10.768207 1.068076 3.374084 -35.122089 -0.000001 0.000001 0.000000 0.271094 7.580059 -14.432507 0.945449 3.192939 -32.981409 0.000000 -0.000001 0.000003 0.000001 -0.000000 -0.000001 1.461463 11.134546 -3.330569 -71.860475 33.821652 27.199861 -0.000022 117.434502 0.000027 12.138199 3.880012 -18.450872 0.466663 9.475923 18.593605 2.136582 -23.165285 17.504137 0.000003 0.000000 0.000001 2.449275 2.151594 1.737210 0.603718 -2.295112 29.471515 0.000002 0.000001 0.000002 -0.030349 -3.619686 -3.131643 1.500584 -3.425939 47.297288 0.000001 0.000000 0.000001 0.239635 -6.342689 2.621586 0.613278 -2.311942 29.709434 -0.000003 -0.000003 0.000000 -11.640348 -11.617691 13.902626 0.284040 -1.603108 20.093576 0.000001 0.000002 0.000001 -0.000000 0.000001 -0.000000 -0.000001 0.000000 0.000000 -0.000003 0.000000 -0.000000 -0.000001 0.000000 0.000000 -0.000001 0.000000 0.000000 -0.000001 0.000000 0.000000 -0.000003 0.000000 0.000000 -0.000001 0.000000 0.000000 -0.000001 0.000000 0.000000 -0.000001 0.000000 0.000000 -0.000003 0.000000 0.000000 -0.000000 0.000000 -0.000000 -0.000000 0.000000 -0.000000 -0.000000 0.000000 -0.000000 
0.301803 41.085548 3.028381 10.810732 1.504562 2.100094 -0.000000 -0.000000 0.000000 -98.781987 -5.403106 8.432393 86.072835 8.215059 0.254551 3.197956 -7.037258 -7.532241 0.000000 -0.000000 -0.000000 0.000000 0.000001 -0.000000 -99.795327 10.103027 -7.357543 86.722215 -7.179225 -1.874003 4.233305 -0.002960 9.034828 0.000000 -0.000000 -0.000000 -0.000000 0.000001 -0.000000 7.322349 -1.777158 -1.491518 12.972734 -0.981566 -1.186087 12.966027 -1.022760 -1.189411 3.122171 -0.859578 -0.692142 -51.579345 1.594024 -8.096119 -0.000000 -0.000000 0.000000 -0.000000 -0.000000 0.000000 -0.000000 -0.000000 0.000001 -0.000000 -0.000000 0.000000 -0.000000 0.000000 0.000000 -0.000000 -0.000000 0.000000 -0.000000 0.000000 0.000000 -0.000000 -0.000000 0.000000 -0.000000 -0.000000 0.000000 2.114948 -12.310444 6.918394 -56.643872 -27.956564 -13.096895 -0.000010 -115.667696 -0.000010 -10.218842 -26.532478 32.956045 20.860415 4.361007 2.192187 0.281663 11.987414 -27.457781 0.000000 -0.000000 -0.000001 0.424580 1.444431 -13.825821 0.836220 3.018199 -30.965424 0.000002 0.000001 -0.000003 0.528701 5.944118 -8.230269 0.952400 3.203595 -33.105961 0.000001 0.000001 -0.000001 0.929928 7.386418 -10.767141 1.068068 3.374071 -35.121936 -0.000001 -0.000001 0.000001 0.271293 7.580352 -14.431319 0.945428 3.192902 -32.980993 0.000001 -0.000000 0.000003 -0.000000 -0.000003 -0.000000 1.487705 11.465027 -3.085986 -69.923099 33.437891 26.381910 0.000038 117.615994 -0.000023 12.013540 4.096477 -16.866136 0.464876 9.475456 18.592485 2.137313 -23.163717 17.507015 -0.000001 -0.000001 0.000001 2.450242 2.150662 1.735379 0.603674 -2.295014 29.470309 0.000000 0.000001 0.000000 -0.030386 -3.619797 -3.132388 1.500521 -3.425888 47.296331 0.000003 -0.000002 0.000001 0.239616 -6.342678 2.621534 0.613285 -2.311941 29.709359 0.000001 -0.000000 -0.000001 -11.640428 -11.618179 13.900753 0.284007 -1.603026 20.092420 -0.000001 0.000001 -0.000001 -0.000001 0.000000 -0.000002 -0.000001 0.000000 0.000000 -0.000003 -0.000000 -0.000000 -0.000001 0.000000 0.000000 -0.000001 0.000000 0.000000 -0.000001 0.000000 0.000000 -0.000003 -0.000000 -0.000000 -0.000001 0.000000 0.000000 -0.000001 0.000000 0.000000 -0.000001 0.000000 0.000000 -0.000003 -0.000000 -0.000000 -0.000000 -0.000000 0.000000 -0.000000 -0.000000 0.000000 -0.000000 -0.000000 0.000000 
0.321818 41.053543 3.019904 11.089618 1.606718 2.137493 -0.000000 0.000000 -0.000000 -99.101475 -5.338351 8.302245 86.064045 8.266519 0.254555 3.235357 -7.040500 -7.549373 0.000000 -0.000000 0.000000 -0.000000 -0.000001 0.000000 -100.103731 10.265862 -7.402170 86.753962 -7.211285 -1.873989 4.265550 0.001993 9.106987 0.000000 -0.000000 -0.000000 -0.000000 -0.000000 -0.000000 7.557977 -1.732234 -1.499746 13.167892 -0.921942 -1.227742 13.161513 -0.962647 -1.229827 4.847743 -0.977131 -0.865297 -50.472352 1.193751 -8.236320 -0.000000 -0.000000 -0.000001 -0.000000 -0.000000 -0.000001 -0.000000 -0.000000 -0.000000 -0.000000 -0.000000 -0.000001 -0.000000 0.000000 -0.000001 -0.000000 -0.000000 -0.000001 -0.000000 0.000000 -0.000001 -0.000000 -0.000000 -0.000001 -0.000000 -0.000000 -0.000001 2.167050 -12.215282 7.794462 -54.283249 -27.085346 -14.223971 0.000018 -116.372435 0.000014 -9.191122 -25.254531 32.508388 20.860972 4.358190 2.190959 0.282797 11.986096 -27.457996 0.000001 0.000001 -0.000003 0.424237 1.444159 -13.823955 0.836225 3.018209 -30.965564 0.000002 0.000001 -0.000000 0.528793 5.944703 -8.230376 0.952381 3.203578 -33.105708 0.000002 0.000000 -0.000001 0.929847 7.386544 -10.765676 1.068056 3.374063 -35.121820 -0.000001 -0.000000 0.000000 0.271534 7.580726 -14.429907 0.945402 3.192870 -32.980583 -0.000001 0.000000 0.000001 -0.000000 -0.000002 -0.000003 1.506031 11.775374 -2.798576 -67.693622 33.040333 25.501034 0.000037 117.763226 -0.000043 11.410888 4.473166 -15.347879 0.463272 9.474899 18.591048 2.137484 -23.162042 17.507259 0.000001 -0.000002 -0.000000 2.451268 2.149757 1.734122 0.603620 -2.294943 29.469162 0.000001 0.000001 -0.000001 -0.030378 -3.619856 -3.131870 1.500469 -3.425828 47.295221 -0.000001 -0.000003 -0.000001 0.239656 -6.342764 2.622036 0.613282 -2.311944 29.709376 0.000000 -0.000002 0.000000 -11.640129 -11.619120 13.900466 0.283974 -1.602935 20.091261 -0.000000 0.000002 0.000001 0.000000 0.000001 -0.000001 0.000001 -0.000000 0.000000 0.000001 0.000000 0.000000 0.000001 -0.000000 0.000000 0.000001 -0.000000 0.000000 0.000001 -0.000000 0.000000 0.000001 0.000000 0.000000 0.000001 -0.000000 0.000000 0.000001 -0.000000 0.000000 0.000001 -0.000000 0.000000 0.000001 0.000000 0.000000 -0.000000 0.000000 -0.000000 -0.000000 0.000000 -0.000000 -0.000000 0.000000 -0.000000 
